@startuml
skinparam roundCorner 10
skinparam shadowing false
skinparam classFontName Lato
skinparam classFontSize 16
skinparam defaultFontName Source Code Pro
skinparam defaultFontSize 14
skinparam ClassAttributeFontStyle normal
skinparam ClassBackgroundColor white
skinparam ClassBorderColor black
skinparam ClassBorderThickness 1
skinparam ArrowColor black
skinparam linetype polyline
interface dev.nymann.sensor_client.domain.commands.ICommand {
~ String execute()
}
interface dev.nymann.sensor_client.domain.commands.ICommandFactory {
~ ICommand makeFromString(String)
}
abstract class dev.nymann.sensor_client.domain.commands.Command {
# List<String> args
# HashMap<String,Double> sensorValues
+ {abstract}String execute()
}
class dev.nymann.sensor_client.presentation.Client {
}
class dev.nymann.sensor_client.domain.commands.CommandFactory {
+ ICommand makeFromString(String)
+ void onMessage(Message<SensorValue>)
}
class dev.nymann.sensor_client.domain.Communication {
+ String sendMessage(String)
}
class dev.nymann.sensor_client.domain.commands.ReadSensorCommand {
+ String execute()
}


dev.nymann.sensor_client.domain.commands.ICommand <|.. dev.nymann.sensor_client.domain.commands.Command
dev.nymann.sensor_client.domain.commands.ICommandFactory <|.. dev.nymann.sensor_client.domain.commands.CommandFactory
com.hazelcast.topic.MessageListener <|.. dev.nymann.sensor_client.domain.commands.CommandFactory
dev.nymann.sensor_client.domain.commands.Command <|-- dev.nymann.sensor_client.domain.commands.ReadSensorCommand
@enduml
